<svg xmlns="http://www.w3.org/2000/svg" width="480" height="1900" viewBox="0 0 480 1900" role="img" aria-labelledby="title desc" lang="en">
<title id="title">BD × AI Lab / AI8 — From projects to a living laboratory.</title><desc id="desc">Five stages of BD × AI Lab: from today’s projects through local execution and connected collaboration to a laboratory developing both projects and itself. An illustrative path and potential — not measured growth or a time forecast.</desc>
<defs><linearGradient id="path" x1="0" y1="1" x2="1" y2="0"><stop stop-color="#2076a0"/><stop offset="1" stop-color="#367e51"/></linearGradient></defs>
<g font-family="DejaVu Sans, sans-serif">
<rect x="0" y="0" width="480" height="1900" rx="0" fill="#f3f6f4"/>
<g transform="translate(270,35) scale(0.35074626865671643,0.6816326530612244)" opacity="0.38">
<circle cx="440" cy="65" r="53" fill="#e1ece8"/>
<path d="M0 245 60 204 122 214 180 128 220 161 270 104 312 135 380 62 408 104 455 15 523 102 552 67 607 152 670 134 670 245Z" fill="#dfeae6"/>
<path d="M0 245 89 222 156 185 187 199 266 155 314 181 382 116 423 151 455 15 479 152 532 114 581 176 614 139 670 193 670 245Z" fill="#ccded7"/>
<path d="M0 245 166 222 212 236 295 195 339 214 389 182 449 222 511 185 546 201 609 158 670 195 670 245Z" fill="#b8d0c8"/>
<path d="m423 151 32-136 24 137-27-41Z" fill="#f3f6f4" opacity=".55"/>
</g>
<text x="28" y="39" fill="#52666b" font-size="16" font-weight="700" text-anchor="start" letter-spacing="1.2">
<tspan x="28" dy="0">BD × AI LAB / AI8</tspan>
</text>
<text x="28" y="86" fill="#18323a" font-size="34" font-weight="700" text-anchor="start">
<tspan x="28" dy="0">From projects to</tspan>
<tspan x="28" dy="43">a living laboratory.</tspan>
</text>
<text x="28" y="168" fill="#52666b" font-size="18" font-weight="400" text-anchor="start">
<tspan x="28" dy="0">One person. AI collaborators. Knowledge that</tspan>
<tspan x="28" dy="26">endures and grows.</tspan>
</text>
<text x="28" y="231" fill="#24816e" font-size="12" font-weight="700" text-anchor="start" letter-spacing="1.6">
<tspan x="28" dy="0">A DEVELOPMENT VISION</tspan>
</text>
<path d="M43 276V1511" stroke="#24816e" stroke-width="2" fill="none" stroke-dasharray="4 8"/>
<rect x="74" y="252" width="378" height="247" rx="19" fill="#ffffff" stroke="#cfddda"/>
<rect x="74" y="274" width="3" height="36" rx="1" fill="#687e90"/>
<circle cx="43" cy="282" r="17" fill="#f3f6f4" stroke="#687e90" stroke-width="2"/>
<text x="43" y="288" fill="#687e90" font-size="16" font-weight="700" text-anchor="middle">
<tspan x="43" dy="0">1</tspan>
</text>
<text x="96" y="288" fill="#18323a" font-size="23.5" font-weight="700" text-anchor="start">
<tspan x="96" dy="0">Today</tspan>
</text>
<g transform="translate(401,275) scale(0.90625)" fill="none" stroke="#687e90" stroke-width="1.8" stroke-linecap="round" stroke-linejoin="round"><circle cx="16" cy="8" r="4"/><path d="M7 27v-4a9 9 0 0 1 18 0v4Z"/></g>
<circle cx="97" cy="312" r="2.5" fill="#687e90"/>
<text x="110" y="318" fill="#52666b" font-size="19.5" font-weight="400" text-anchor="start">
<tspan x="110" dy="0">BD + GPT + Claude lead</tspan>
<tspan x="110" dy="25">projects.</tspan>
</text>
<circle cx="97" cy="365" r="2.5" fill="#687e90"/>
<text x="110" y="371" fill="#52666b" font-size="19.5" font-weight="400" text-anchor="start">
<tspan x="110" dy="0">TSP, Sudoku, ChessBest, Trip</tspan>
<tspan x="110" dy="25">and the web.</tspan>
</text>
<circle cx="97" cy="418" r="2.5" fill="#687e90"/>
<text x="110" y="424" fill="#52666b" font-size="19.5" font-weight="400" text-anchor="start">
<tspan x="110" dy="0">BD connects the work across</tspan>
<tspan x="110" dy="25">sessions.</tspan>
</text>
<rect x="74" y="514" width="378" height="247" rx="19" fill="#ffffff" stroke="#cfddda"/>
<rect x="74" y="536" width="3" height="36" rx="1" fill="#2076a0"/>
<circle cx="43" cy="544" r="17" fill="#f3f6f4" stroke="#2076a0" stroke-width="2"/>
<text x="43" y="550" fill="#2076a0" font-size="16" font-weight="700" text-anchor="middle">
<tspan x="43" dy="0">2</tspan>
</text>
<text x="96" y="550" fill="#18323a" font-size="23.5" font-weight="700" text-anchor="start">
<tspan x="96" dy="0">First WL runtime</tspan>
</text>
<g transform="translate(401,537) scale(0.90625)" fill="none" stroke="#2076a0" stroke-width="1.8" stroke-linecap="round" stroke-linejoin="round"><rect x="3" y="4" width="26" height="18" rx="3"/><path d="M10 28h12M16 22v6M8 10l4 3-4 3M17 16h7"/></g>
<circle cx="97" cy="574" r="2.5" fill="#2076a0"/>
<text x="110" y="580" fill="#52666b" font-size="19.5" font-weight="400" text-anchor="start">
<tspan x="110" dy="0">Python on HOME and WORK.</tspan>
</text>
<circle cx="97" cy="602" r="2.5" fill="#2076a0"/>
<text x="110" y="608" fill="#52666b" font-size="19.5" font-weight="400" text-anchor="start">
<tspan x="110" dy="0">Inbox commands, results on</tspan>
<tspan x="110" dy="25">Drive.</tspan>
</text>
<circle cx="97" cy="655" r="2.5" fill="#2076a0"/>
<text x="110" y="661" fill="#52666b" font-size="19.5" font-weight="400" text-anchor="start">
<tspan x="110" dy="0">LE_START / LE_CHECK</tspan>
</text>
<circle cx="97" cy="683" r="2.5" fill="#2076a0"/>
<text x="110" y="689" fill="#52666b" font-size="19.5" font-weight="400" text-anchor="start">
<tspan x="110" dy="0">8zCockpit as the executor.</tspan>
</text>
<rect x="74" y="776" width="378" height="247" rx="19" fill="#ffffff" stroke="#cfddda"/>
<rect x="74" y="798" width="3" height="36" rx="1" fill="#24816e"/>
<circle cx="43" cy="806" r="17" fill="#f3f6f4" stroke="#24816e" stroke-width="2"/>
<text x="43" y="812" fill="#24816e" font-size="16" font-weight="700" text-anchor="middle">
<tspan x="43" dy="0">3</tspan>
</text>
<text x="96" y="812" fill="#18323a" font-size="23.5" font-weight="700" text-anchor="start">
<tspan x="96" dy="0">Connected</tspan>
<tspan x="96" dy="29">laboratory</tspan>
</text>
<g transform="translate(401,799) scale(0.90625)" fill="none" stroke="#24816e" stroke-width="1.8" stroke-linecap="round" stroke-linejoin="round"><circle cx="16" cy="6" r="3"/><circle cx="6" cy="25" r="3"/><circle cx="26" cy="25" r="3"/><circle cx="16" cy="16" r="3"/><path d="M16 9v4M14 18l-6 5M18 18l6 5M9 25h14"/></g>
<circle cx="97" cy="865" r="2.5" fill="#24816e"/>
<text x="110" y="871" fill="#52666b" font-size="19.5" font-weight="400" text-anchor="start">
<tspan x="110" dy="0">GPT / Claude as architects.</tspan>
</text>
<circle cx="97" cy="893" r="2.5" fill="#24816e"/>
<text x="110" y="899" fill="#52666b" font-size="19.5" font-weight="400" text-anchor="start">
<tspan x="110" dy="0">Codex and Claude Code as</tspan>
<tspan x="110" dy="25">workers.</tspan>
</text>
<circle cx="97" cy="946" r="2.5" fill="#24816e"/>
<text x="110" y="952" fill="#52666b" font-size="19.5" font-weight="400" text-anchor="start">
<tspan x="110" dy="0">Memory, dialogue and evidence.</tspan>
</text>
<circle cx="97" cy="974" r="2.5" fill="#24816e"/>
<text x="110" y="980" fill="#52666b" font-size="19.5" font-weight="400" text-anchor="start">
<tspan x="110" dy="0">More hosts, less manual</tspan>
<tspan x="110" dy="25">handover.</tspan>
</text>
<rect x="74" y="1038" width="378" height="247" rx="19" fill="#ffffff" stroke="#cfddda"/>
<rect x="74" y="1060" width="3" height="36" rx="1" fill="#98702c"/>
<circle cx="43" cy="1068" r="17" fill="#f3f6f4" stroke="#98702c" stroke-width="2"/>
<text x="43" y="1074" fill="#98702c" font-size="16" font-weight="700" text-anchor="middle">
<tspan x="43" dy="0">4</tspan>
</text>
<text x="96" y="1074" fill="#18323a" font-size="23.5" font-weight="700" text-anchor="start">
<tspan x="96" dy="0">Project multiplier</tspan>
</text>
<g transform="translate(401,1061) scale(0.90625)" fill="none" stroke="#98702c" stroke-width="1.8" stroke-linecap="round" stroke-linejoin="round"><path d="M5 28V19h5v9M14 28V12h5v16M23 28V4h5v24M3 28h28"/></g>
<circle cx="97" cy="1098" r="2.5" fill="#98702c"/>
<text x="110" y="1104" fill="#52666b" font-size="19.5" font-weight="400" text-anchor="start">
<tspan x="110" dy="0">New arenas and tools.</tspan>
</text>
<circle cx="97" cy="1126" r="2.5" fill="#98702c"/>
<text x="110" y="1132" fill="#52666b" font-size="19.5" font-weight="400" text-anchor="start">
<tspan x="110" dy="0">TSP → Trip ports.</tspan>
</text>
<circle cx="97" cy="1154" r="2.5" fill="#98702c"/>
<text x="110" y="1160" fill="#52666b" font-size="19.5" font-weight="400" text-anchor="start">
<tspan x="110" dy="0">ChessBest: Top Picks and DCC.</tspan>
</text>
<circle cx="97" cy="1182" r="2.5" fill="#98702c"/>
<text x="110" y="1188" fill="#52666b" font-size="19.5" font-weight="400" text-anchor="start">
<tspan x="110" dy="0">Build → test → improve.</tspan>
</text>
<rect x="74" y="1300" width="378" height="247" rx="19" fill="#ffffff" stroke="#cfddda"/>
<rect x="74" y="1322" width="3" height="36" rx="1" fill="#367e51"/>
<circle cx="43" cy="1330" r="17" fill="#f3f6f4" stroke="#367e51" stroke-width="2"/>
<text x="43" y="1336" fill="#367e51" font-size="16" font-weight="700" text-anchor="middle">
<tspan x="43" dy="0">5</tspan>
</text>
<text x="96" y="1336" fill="#18323a" font-size="23.5" font-weight="700" text-anchor="start">
<tspan x="96" dy="0">Living AI8 Lab</tspan>
</text>
<g transform="translate(401,1323) scale(0.90625)" fill="none" stroke="#367e51" stroke-width="1.8" stroke-linecap="round" stroke-linejoin="round"><path d="M16 16C8-1 1 7 3 16s10 9 13 0c8-17 15-9 13 0s-10 9-13 0Z"/></g>
<circle cx="97" cy="1360" r="2.5" fill="#367e51"/>
<text x="110" y="1366" fill="#52666b" font-size="19.5" font-weight="400" text-anchor="start">
<tspan x="110" dy="0">Coordinates work across</tspan>
<tspan x="110" dy="25">components.</tspan>
</text>
<circle cx="97" cy="1413" r="2.5" fill="#367e51"/>
<text x="110" y="1419" fill="#52666b" font-size="19.5" font-weight="400" text-anchor="start">
<tspan x="110" dy="0">Proposes, builds, tests,</tspan>
<tspan x="110" dy="25">improves.</tspan>
</text>
<circle cx="97" cy="1466" r="2.5" fill="#367e51"/>
<text x="110" y="1472" fill="#52666b" font-size="19.5" font-weight="400" text-anchor="start">
<tspan x="110" dy="0">Develops projects and itself.</tspan>
</text>
<circle cx="97" cy="1494" r="2.5" fill="#367e51"/>
<text x="110" y="1500" fill="#52666b" font-size="19.5" font-weight="400" text-anchor="start">
<tspan x="110" dy="0">BD remains a partner and guide.</tspan>
</text>
<text x="28" y="1620" fill="#18323a" font-size="25" font-weight="700" text-anchor="start">
<tspan x="28" dy="0">Two loops. Shared learning.</tspan>
</text>
<rect x="28" y="1643" width="132" height="42" rx="11" fill="#e9f1ed" stroke="#cfddda"/>
<text x="94" y="1670" fill="#18323a" font-size="17" font-weight="600" text-anchor="middle">
<tspan x="94" dy="0">Task</tspan>
</text>
<text x="167" y="1670" fill="#52666b" font-size="17" font-weight="400" text-anchor="middle">
<tspan x="167" dy="0">›</tspan>
</text>
<rect x="174" y="1643" width="132" height="42" rx="11" fill="#e9f1ed" stroke="#cfddda"/>
<text x="240" y="1670" fill="#18323a" font-size="17" font-weight="600" text-anchor="middle">
<tspan x="240" dy="0">Execute</tspan>
</text>
<text x="313" y="1670" fill="#52666b" font-size="17" font-weight="400" text-anchor="middle">
<tspan x="313" dy="0">›</tspan>
</text>
<rect x="320" y="1643" width="132" height="42" rx="11" fill="#e9f1ed" stroke="#cfddda"/>
<text x="386" y="1670" fill="#18323a" font-size="17" font-weight="600" text-anchor="middle">
<tspan x="386" dy="0">Evidence</tspan>
</text>
<rect x="28" y="1701" width="132" height="42" rx="11" fill="#e9f1ed" stroke="#cfddda"/>
<text x="94" y="1728" fill="#18323a" font-size="17" font-weight="600" text-anchor="middle">
<tspan x="94" dy="0">Analyse</tspan>
</text>
<text x="167" y="1728" fill="#52666b" font-size="17" font-weight="400" text-anchor="middle">
<tspan x="167" dy="0">›</tspan>
</text>
<rect x="174" y="1701" width="132" height="42" rx="11" fill="#e9f1ed" stroke="#cfddda"/>
<text x="240" y="1728" fill="#18323a" font-size="17" font-weight="600" text-anchor="middle">
<tspan x="240" dy="0">Improve</tspan>
</text>
<text x="313" y="1728" fill="#52666b" font-size="17" font-weight="400" text-anchor="middle">
<tspan x="313" dy="0">›</tspan>
</text>
<rect x="320" y="1701" width="132" height="42" rx="11" fill="#e9f1ed" stroke="#cfddda"/>
<text x="386" y="1728" fill="#18323a" font-size="17" font-weight="600" text-anchor="middle">
<tspan x="386" dy="0">Next run</tspan>
</text>
<path d="M433 1688v12H22v49q0 7 7 7h378" fill="none" stroke="#cfddda" stroke-width="1.5"/>
<text x="28" y="1778" fill="#2076a0" font-size="17" font-weight="700" text-anchor="start">
<tspan x="28" dy="0">Better projects  ↔</tspan>
</text>
<text x="28" y="1803" fill="#24816e" font-size="17" font-weight="700" text-anchor="start">
<tspan x="28" dy="0">A better way for the Lab to work</tspan>
</text>
<text x="28" y="1850" fill="#52666b" font-size="13" font-weight="400" text-anchor="start">
<tspan x="28" dy="0">An illustrative path and potential — not measured growth or a</tspan>
<tspan x="28" dy="20">time forecast.</tspan>
</text>
</g></svg>